<?xml version="1.0" encoding="utf-8"?>
<!-- Generator: Adobe Illustrator 24.0.2, SVG Export Plug-In . SVG Version: 6.00 Build 0)  -->
<svg version="1.1" id="Layer_1" xmlns="http://www.w3.org/2000/svg" xmlns:xlink="http://www.w3.org/1999/xlink" x="0px" y="0px"
	 viewBox="0 0 894 894" style="enable-background:new 0 0 894 894;" xml:space="preserve">
<path fill="currentColor" d="M235.2,445v-1.5l10-1.2h2.7v2.7H235.2z M242.9,445c0.1-2.6,0.2-5.5,0.3-8.9c0.1-3.5,0.1-7,0.1-10.8s0-7.3,0-10.7v-4.2
	c0-3.3,0-6.8,0-10.4c0-3.6,0-7.1-0.1-10.5c-0.1-3.4-0.2-6.4-0.3-8.9h7.6c-0.1,2.6-0.2,5.5-0.3,8.9c-0.1,3.3-0.1,6.8-0.1,10.5
	c0,3.6,0,7,0,10.4v4.2c0,3.4,0,6.9,0,10.7s0,7.3,0.1,10.8c0.1,3.4,0.2,6.4,0.3,8.9H242.9z M245.8,445v-2.3h9.7
	c5.8,0,10.2-1.3,13.2-3.9c3-2.6,4.5-6.3,4.5-10.9c0-4.9-1.5-8.6-4.5-11.1s-7.6-3.7-13.9-3.7h-9v-2.3h8.6c3.7,0,6.8-0.5,9.1-1.5
	c2.4-1,4.3-2.6,5.5-4.7c1.2-2.2,1.8-4.9,1.8-8.1s-0.6-5.8-1.7-7.7c-1.2-2-2.8-3.4-5-4.3s-4.8-1.3-8-1.3h-10.4v-2.3h12.4
	c4.1,0,7.6,0.6,10.5,1.9c2.9,1.2,5.1,2.9,6.6,5.2c1.5,2.2,2.3,4.9,2.3,8c0,2.9-0.8,5.7-2.3,8.2c-1.5,2.4-3.7,4.4-6.7,5.9
	c-3,1.5-6.8,2.2-11.4,2.2v-0.8c5.4,0,9.8,0.7,13.2,2.2c3.5,1.5,6,3.5,7.6,6c1.7,2.5,2.5,5.2,2.5,8.3c0,2.2-0.5,4.4-1.4,6.5
	c-0.9,2-2.3,3.9-4.2,5.6c-1.9,1.6-4.3,2.9-7.3,3.8c-2.9,1-6.4,1.4-10.5,1.4H245.8z M235.2,382.2v-1.5h12.7v2.7h-2.7L235.2,382.2z
	 M287.5,445v-1.5l9.2-1.2h1.8l9.1,1.2v1.5H287.5z M294.2,445c0.1-1.5,0.2-3.4,0.2-5.9c0.1-2.4,0.1-4.9,0.1-7.5c0.1-2.6,0.1-5,0.1-7
	V380l-7.5-1.6V377l13.5-3.5l0.8,0.8l-0.4,16.6v33.7c0,2,0,4.4,0,7c0.1,2.6,0.1,5.1,0.2,7.5c0.1,2.4,0.1,4.4,0.2,5.9H294.2z
	 M325.4,446.2c-3.1,0-5.8-0.9-8-2.7c-2.2-1.9-3.3-4.5-3.3-8.1c0-1.8,0.4-3.5,1.1-5.1c0.7-1.6,2-3.1,4-4.5c2-1.5,4.9-2.8,8.8-4.1
	c1-0.3,2.1-0.7,3.4-1.1s2.8-0.8,4.5-1.2c1.8-0.5,3.8-1,6-1.5v1.5c-3.3,1-5.9,1.8-7.9,2.4c-1.9,0.6-3.3,1.2-4.2,1.5
	c-2.7,1.2-4.7,2.3-6,3.6c-1.2,1.2-2,2.4-2.4,3.6c-0.4,1.2-0.6,2.3-0.6,3.4c0,2.8,0.7,4.7,2,6c1.4,1.2,3.1,1.7,5.2,1.7
	c1.4,0,2.7-0.2,3.9-0.5c1.2-0.3,2.5-0.9,3.9-1.8c1.4-1,3.1-2.4,5-4.3l0.8,3.6h-2.9c-1.3,1.8-2.8,3.3-4.2,4.4c-1.4,1.2-2.9,2-4.5,2.5
	C328.6,445.9,327,446.2,325.4,446.2z M345.8,445.8c-2.4,0-4.3-0.7-5.6-2c-1.2-1.4-1.9-3.4-1.9-6v-0.2v-22.2c0-3.1-0.3-5.6-1-7.4
	c-0.6-1.9-1.5-3.2-2.8-3.9s-2.9-1.2-5-1.2c-1.2,0-2.4,0.2-3.6,0.5c-1.2,0.3-2.4,0.6-3.6,1.1l2.7-1.8l-1.8,7.7
	c-0.3,1.3-0.7,2.3-1.4,3c-0.7,0.7-1.6,1.1-2.7,1.1s-1.9-0.3-2.4-1c-0.5-0.6-0.8-1.5-1-2.6c0.7-3.1,2.6-5.6,5.6-7.5
	c3-1.9,6.6-2.9,10.7-2.9c2.9,0,5.3,0.5,7.2,1.6c1.9,1,3.3,2.7,4.2,4.9c1,2.2,1.4,5.1,1.4,8.6V437c0,2,0.3,3.4,0.8,4.1
	c0.6,0.7,1.3,1.1,2.2,1.1c0.8,0,1.5-0.2,2.1-0.6c0.6-0.4,1.3-1,2.1-1.9l1,0.8c-0.6,1.5-1.5,2.8-2.7,3.8
	C349.2,445.3,347.7,445.8,345.8,445.8z M377.1,446.2c-3.9,0-7.4-0.9-10.4-2.6c-2.9-1.7-5.2-4.3-6.9-7.6c-1.7-3.3-2.5-7.4-2.5-12.1
	c0-5.1,1-9.4,3-12.9c2-3.5,4.6-6.1,7.8-7.9c3.2-1.8,6.6-2.7,10.1-2.7c2.6,0,4.8,0.4,6.7,1.3c2,0.9,3.6,2.1,4.8,3.7
	c1.3,1.6,2.1,3.4,2.5,5.5c-0.1,1.1-0.4,1.9-1.1,2.5c-0.6,0.6-1.4,0.9-2.5,0.9c-1,0-1.9-0.4-2.6-1.1c-0.7-0.7-1.2-1.7-1.5-3l-1.8-7.7
	l2.3,2.4c-1-1.2-2.2-1.9-3.5-2.1c-1.3-0.3-2.4-0.4-3.4-0.4c-3.1,0-5.7,0.9-7.8,2.8c-2,1.8-3.6,4.2-4.7,7.2c-1,2.9-1.5,6.2-1.5,9.7
	c0,3.4,0.5,6.6,1.5,9.5c1.1,2.9,2.7,5.3,4.9,7.1c2.2,1.7,4.9,2.6,8.3,2.6c1.9,0,3.6-0.3,5.2-0.8c1.5-0.6,2.9-1.4,4.1-2.4
	c1.3-1,2.4-2.2,3.5-3.6l1.3,0.8c-1.1,2.4-2.4,4.4-4,6c-1.5,1.6-3.3,2.8-5.3,3.6C381.7,445.8,379.5,446.2,377.1,446.2z M397.6,445
	v-1.5l9.2-1.2h1.8l9.1,1.2v1.5H397.6z M404.3,445c0.1-1.1,0.1-2.5,0.2-4.1s0.1-3.5,0.1-5.4c0.1-1.9,0.1-3.8,0.1-5.7
	c0-1.9,0-3.6,0-5.2V380l-7.5-1.6V377l13.5-3.5l0.8,0.8l-0.4,18.8v31.5c0,1.5,0,3.3,0,5.2c0,1.9,0,3.7,0,5.7c0.1,1.9,0.1,3.7,0.2,5.4
	s0.1,3,0.2,4.1H404.3z M408,431.6v-3.7h0.6l11.7-13.2l11.6-13.1h3.2L408,431.6z M430.5,445l-14.3-24.2l4.8-4.4l15.9,26.3l5.4,0.8
	v1.5H430.5z M421.2,403.1v-1.5H440v1.5l-8.1,1.2h-1.5L421.2,403.1z M463,445.4l-15.4-43.8h7.6l11.8,36.7h-1.7l0.5-1.2l11.9-35.4h2.9
	l12.6,36.7h-1.7l0.4-1.2l11.6-35.4h2.8l-15,43.8h-2.1l-12.6-36h1.2l-0.3,0.8l-12.3,35.2H463z M443.8,403.1v-1.5h18.7v1.4l-8.4,1.2
	h-1.9L443.8,403.1z M470.1,403v-1.4h18.1v1.4l-7.3,0.9h-3.6L470.1,403z M496.1,403v-1.4h13.9v1.5l-5.8,0.8h-1.2L496.1,403z
	 M524.7,446.2c-3.1,0-5.8-0.9-8-2.7c-2.2-1.9-3.3-4.5-3.3-8.1c0-1.8,0.4-3.5,1.1-5.1c0.7-1.6,2-3.1,4-4.5c2-1.5,4.9-2.8,8.8-4.1
	c1-0.3,2.1-0.7,3.4-1.1c1.3-0.4,2.8-0.8,4.5-1.2c1.8-0.5,3.8-1,6-1.5v1.5c-3.3,1-5.9,1.8-7.9,2.4c-1.9,0.6-3.3,1.2-4.2,1.5
	c-2.7,1.2-4.7,2.3-6,3.6c-1.2,1.2-2,2.4-2.4,3.6c-0.4,1.2-0.6,2.3-0.6,3.4c0,2.8,0.7,4.7,2,6c1.4,1.2,3.1,1.7,5.2,1.7
	c1.4,0,2.7-0.2,3.9-0.5c1.2-0.3,2.5-0.9,3.9-1.8c1.4-1,3.1-2.4,5-4.3l0.8,3.6h-2.9c-1.3,1.8-2.8,3.3-4.2,4.4c-1.4,1.2-2.9,2-4.5,2.5
	C528,445.9,526.4,446.2,524.7,446.2z M545.1,445.8c-2.4,0-4.3-0.7-5.6-2c-1.2-1.4-1.9-3.4-1.9-6v-0.2v-22.2c0-3.1-0.3-5.6-1-7.4
	c-0.6-1.9-1.5-3.2-2.8-3.9c-1.3-0.8-2.9-1.2-5-1.2c-1.2,0-2.4,0.2-3.6,0.5c-1.2,0.3-2.4,0.6-3.6,1.1l2.7-1.8l-1.8,7.7
	c-0.3,1.3-0.7,2.3-1.4,3c-0.7,0.7-1.6,1.1-2.7,1.1s-1.9-0.3-2.4-1c-0.5-0.6-0.8-1.5-1-2.6c0.7-3.1,2.6-5.6,5.6-7.5
	c3-1.9,6.6-2.9,10.7-2.9c2.9,0,5.3,0.5,7.2,1.6c1.9,1,3.3,2.7,4.2,4.9c1,2.2,1.4,5.1,1.4,8.6V437c0,2,0.3,3.4,0.8,4.1
	c0.6,0.7,1.3,1.1,2.2,1.1c0.8,0,1.5-0.2,2.1-0.6c0.6-0.4,1.3-1,2.1-1.9l1,0.8c-0.6,1.5-1.5,2.8-2.7,3.8
	C548.5,445.3,547,445.8,545.1,445.8z M564.2,403.9v-2.3h14.9v2.3H564.2z M570.3,446.2c-3,0-5.4-0.8-7.2-2.4
	c-1.8-1.7-2.7-4.1-2.7-7.3c0-1.8,0-3.4,0-4.9c0-1.5,0-3.4,0-5.6l0.2-22.1h-7.3v-1.5l10.7-1.7l-3.5,2.1l4.8-15.7h2.1l-0.4,15.7v0.4
	v32.5c0,2.5,0.5,4.3,1.4,5.4c1,1,2.3,1.5,3.9,1.5c1.3,0,2.5-0.3,3.6-0.8c1.1-0.6,2.1-1.4,3-2.4l1.1,0.9c-0.6,1.2-1.4,2.3-2.3,3.2
	c-0.8,0.8-1.9,1.5-3.1,1.9C573.5,445.9,572.1,446.2,570.3,446.2z M604.9,446.2c-3.6,0-7-0.9-10-2.6c-2.9-1.8-5.3-4.3-7-7.6
	c-1.7-3.3-2.6-7.2-2.6-11.7c0-4.8,0.9-9,2.7-12.5c1.8-3.6,4.1-6.4,7-8.4c2.9-2,6.1-3,9.6-3c2.9,0,5.6,0.7,8,2
	c2.4,1.3,4.4,3.1,5.8,5.6c1.4,2.4,2.1,5.2,2.1,8.5c0,1-0.1,2-0.2,2.8c-0.1,0.8-0.2,1.4-0.4,2h-32.1v-2.1h21.9c1.8,0,3-0.4,3.7-1.2
	c0.7-0.8,1.1-2,1.1-3.6c0-2.4-0.4-4.5-1.2-6.3c-0.8-1.8-1.9-3.2-3.4-4.1c-1.5-1-3.2-1.5-5.3-1.5c-2,0-4.1,0.7-6,2
	c-1.9,1.3-3.5,3.5-4.7,6.4s-1.8,6.8-1.8,11.6c0,3.9,0.6,7.3,1.9,10.1c1.3,2.8,3,5,5.2,6.5c2.2,1.5,4.8,2.2,7.6,2.2
	c2.9,0,5.4-0.6,7.5-1.8c2.1-1.3,3.9-2.9,5.5-5l1.3,0.8c-1.1,2.5-2.5,4.5-4.1,6.1c-1.7,1.5-3.5,2.7-5.6,3.5
	C609.3,445.8,607.2,446.2,604.9,446.2z M628.4,445v-1.5l9.2-1.2h1.8l10.3,1.2v1.5H628.4z M635.1,445c0.1-1.5,0.2-3.4,0.2-5.9
	c0.1-2.4,0.1-4.9,0.1-7.5c0.1-2.6,0.1-5,0.1-7v-4.4c0-1.8,0-3.4-0.1-4.8c0-1.4,0-2.7-0.1-3.9c0-1.3,0-2.6-0.1-3.8L628,406v-1.3
	l13.2-4.2l0.8,0.8v14.6v0.3v8.5c0,2,0,4.4,0,7c0.1,2.6,0.1,5.1,0.2,7.5c0.1,2.4,0.1,4.4,0.2,5.9H635.1z M641.3,420.7l-1.2-5.4h1.3
	c1.1-3.3,2.4-6.1,3.8-8.3c1.5-2.2,3.1-3.8,4.9-4.9c1.8-1.2,3.7-1.7,5.7-1.7c1.4,0,2.6,0.3,3.6,1c1.1,0.6,1.8,1.6,2.2,3
	c-0.1,1.5-0.6,2.6-1.6,3.5s-2.2,1.2-3.5,1.2c-1,0-2-0.2-2.9-0.7c-0.8-0.5-1.7-1.2-2.5-2l-2.3-2.4l3.7-0.6c-2.2,0.9-4.4,2.8-6.5,5.9
	C644,412.2,642.3,416,641.3,420.7z"/>
<path fill="currentColor" d="M300.4,536v-1.2l4.7-0.5h1l4.7,0.5v1.2H300.4z M303.8,536c0.1-1.2,0.1-2.5,0.1-3.9c0-1.4,0-2.8,0-4.3c0-1.5,0-2.9,0-4.3
	v-1.9c0-1.4,0-2.8,0-4.2s0-2.9,0-4.2c0-1.4-0.1-2.7-0.1-3.9h3.6c0,1.2-0.1,2.5-0.1,3.9c0,1.4,0,2.8,0,4.3c0,1.4,0,2.9,0,4.2v1.5
	c0,1.5,0,3,0,4.6c0,1.5,0,3,0,4.4c0,1.4,0.1,2.7,0.1,4H303.8z M305.6,523v-1.4h16.2v1.4H305.6z M316.4,536v-1.2l4.7-0.5h1l4.7,0.5
	v1.2H316.4z M319.8,536c0.1-1.2,0.1-2.5,0.1-3.9c0-1.4,0-2.9,0-4.4s0-3.1,0-4.6v-1.5c0-1.4,0-2.8,0-4.2s0-2.9,0-4.2
	c0-1.4-0.1-2.7-0.1-3.9h3.6c0,1.2-0.1,2.5-0.1,3.9c0,1.4,0,2.8,0,4.3c0,1.4,0,2.9,0,4.2v1.9c0,1.4,0,2.8,0,4.3s0,2.9,0,4.3
	c0,1.4,0.1,2.7,0.1,3.9H319.8z M300.4,510.3v-1.1h10.4v1.1l-4.7,0.6h-1L300.4,510.3z M316.4,510.3v-1.1h10.4v1.1l-4.7,0.6h-1
	L316.4,510.3z M338.3,536.5c-1.5,0-2.9-0.4-4.3-1.1c-1.3-0.7-2.4-1.8-3.2-3.2c-0.8-1.4-1.2-3.2-1.2-5.4s0.4-3.9,1.2-5.4
	c0.8-1.5,1.9-2.6,3.2-3.3c1.3-0.7,2.8-1.1,4.3-1.1c1.5,0,2.9,0.4,4.2,1.1c1.3,0.7,2.4,1.8,3.2,3.2c0.8,1.4,1.2,3.2,1.2,5.4
	c0,2.1-0.4,3.9-1.2,5.4c-0.8,1.4-1.9,2.5-3.2,3.3C341.2,536.1,339.8,536.5,338.3,536.5z M338.3,535.2c1.1,0,2.1-0.3,2.9-1
	s1.4-1.6,1.8-2.8c0.4-1.3,0.6-2.8,0.6-4.6c0-1.8-0.2-3.4-0.6-4.6c-0.4-1.3-1-2.2-1.8-2.8c-0.8-0.7-1.8-1-2.9-1s-2.1,0.3-2.9,1
	c-0.8,0.6-1.4,1.6-1.8,2.9c-0.4,1.3-0.6,2.8-0.6,4.6c0,1.8,0.2,3.3,0.6,4.6c0.4,1.2,1,2.2,1.8,2.8
	C336.2,534.8,337.1,535.2,338.3,535.2z M349.6,536v-1l4.2-0.6h0.8l4.2,0.6v1H349.6z M352.6,536c0-0.8,0-1.6,0-2.6c0-1,0-2,0-3
	c0-1,0-2,0-2.8v-18.1l-3.2-0.6v-1l6-1.6l0.4,0.3l-0.2,6.3v14.6c0,0.9,0,1.8,0,2.8c0,1,0,2,0,3c0,1,0.1,1.8,0.1,2.6H352.6z
	 M369.2,536.5c-1.5,0-2.8-0.4-4-1.1c-1.1-0.7-2.1-1.8-2.7-3.2c-0.7-1.4-1-3.1-1-5.1c0-2.1,0.4-3.9,1.1-5.4c0.7-1.5,1.7-2.6,2.9-3.4
	c1.2-0.8,2.6-1.2,4.1-1.2c0.7,0,1.4,0.1,2,0.3c0.7,0.2,1.3,0.6,1.9,1.1c0.6,0.5,1.2,1.2,1.7,2h0.6l-0.4,1.5c-1.1-1.1-2-1.9-2.8-2.4
	c-0.8-0.5-1.7-0.7-2.6-0.7c-1,0-1.9,0.3-2.7,0.9c-0.8,0.6-1.5,1.4-2,2.6c-0.5,1.2-0.7,2.7-0.7,4.5c0,1.8,0.2,3.2,0.7,4.4
	c0.5,1.1,1.1,2,2,2.6c0.8,0.5,1.8,0.8,2.8,0.8c1.1,0,2-0.3,2.8-0.9c0.8-0.6,1.7-1.5,2.5-2.6l0.3,1.5h-0.5c-0.4,0.8-0.9,1.5-1.6,2
	c-0.6,0.6-1.3,1-2,1.3C370.9,536.3,370.1,536.5,369.2,536.5z M374.9,536.4l-0.2-3.9v-0.1v-11.6l0-0.4v-10.8l-3.2-0.6v-1l5.9-1.6
	l0.4,0.3l-0.2,6.8v21.1l3,0.4v1L374.9,536.4z M383,536v-1l4.1-0.6h0.8l3.9,0.6v1H383z M385.9,536c0-0.6,0-1.4,0-2.4c0-1,0-2.1,0-3.1
	c0-1.1,0-2.1,0-2.9v-1.9c0-1.1,0-2,0-2.8c0-0.8,0-1.6-0.1-2.4l-3.1-0.5v-1l5.9-2.1l0.5,0.4l-0.2,5.2v5c0,0.8,0,1.8,0,2.9
	c0,1.1,0.1,2.1,0.1,3.1c0,1,0.1,1.8,0.1,2.4H385.9z M387.4,512.8c-0.7,0-1.2-0.2-1.7-0.6c-0.5-0.4-0.7-1-0.7-1.7
	c0-0.7,0.2-1.3,0.7-1.7c0.5-0.4,1.1-0.6,1.7-0.6c0.7,0,1.3,0.2,1.7,0.6c0.5,0.4,0.7,1,0.7,1.7c0,0.7-0.2,1.3-0.7,1.7
	C388.6,512.6,388.1,512.8,387.4,512.8z M394.6,536v-1l4.1-0.6h0.8l3.9,0.6v1H394.6z M397.4,536c0.1-0.6,0.1-1.4,0.1-2.4
	c0-1,0-2.1,0-3.1c0-1.1,0-2.1,0-2.9v-1.9c0-0.7,0-1.4,0-2c0-0.6,0-1.1,0-1.6c0-0.5,0-1,0-1.6l-3.1-0.5v-1l5.5-2.1l0.5,0.4l0.2,4.3v0
	v5.9c0,0.8,0,1.8,0,2.9c0,1.1,0,2.1,0,3.1c0,1,0.1,1.8,0.1,2.4H397.4z M406.4,536v-1l4.1-0.6h0.8l3.9,0.6v1H406.4z M409.2,536
	c0-0.6,0-1.4,0-2.4c0-1,0-2.1,0-3.1c0-1.1,0-2.1,0-2.9V524c0-1.8-0.3-3-0.8-3.6c-0.5-0.7-1.3-1-2.5-1c-0.6,0-1.3,0.1-1.9,0.3
	c-0.6,0.2-1.2,0.5-1.9,1c-0.6,0.4-1.3,0.9-2,1.6l-0.4-1h0.2c0.6-0.7,1.3-1.4,2.1-2.1c0.8-0.6,1.7-1.1,2.6-1.5
	c0.9-0.4,1.8-0.6,2.8-0.6c1.6,0,2.8,0.5,3.6,1.6c0.8,1,1.2,2.8,1.2,5.3v3.7c0,0.9,0,1.8,0,2.9c0,1.1,0.1,2.1,0.1,3.1
	c0,1,0.1,1.8,0.1,2.4H409.2z M425.2,546c-1.8,0-3.2-0.2-4.3-0.6c-1.1-0.4-1.9-1-2.5-1.7c-0.5-0.7-0.8-1.6-0.8-2.5
	c0-0.7,0.2-1.3,0.5-1.9c0.3-0.6,0.9-1.1,1.6-1.7c0.8-0.5,1.8-1.1,3-1.6l0.2,0.2c-0.5,0.4-0.9,0.8-1.2,1.2c-0.4,0.4-0.7,0.9-0.9,1.4
	c-0.2,0.5-0.3,1.1-0.3,1.8c0,0.9,0.2,1.7,0.6,2.3c0.5,0.6,1.1,1.1,1.8,1.4c0.8,0.3,1.7,0.4,2.8,0.4c1.4,0,2.7-0.2,3.6-0.6
	c1-0.4,1.8-1,2.2-1.7c0.5-0.7,0.8-1.5,0.8-2.3c0-1-0.3-1.7-1-2.3c-0.6-0.6-1.6-0.9-3.1-0.9h-4.5c-0.3,0-0.6,0-1,0
	c-0.3,0-0.7,0-1-0.1v-0.1c-1-0.2-1.8-0.5-2.4-1c-0.6-0.6-0.8-1.3-0.8-2.2c0-0.7,0.2-1.5,0.7-2.2c0.5-0.7,1.3-1.5,2.4-2.5v-0.3l1,0.6
	c-0.6,0.6-1,1.1-1.2,1.6c-0.2,0.5-0.3,0.9-0.3,1.4c0,0.7,0.2,1.3,0.7,1.6c0.5,0.3,1.2,0.5,2.2,0.5h4.8c1.4,0,2.6,0.2,3.5,0.6
	c0.9,0.4,1.6,0.9,2.1,1.6c0.5,0.7,0.7,1.7,0.7,2.8c0,0.9-0.2,1.8-0.6,2.6c-0.4,0.9-1,1.6-1.8,2.3s-1.9,1.2-3.1,1.6
	C428.3,545.8,426.9,546,425.2,546z M425.5,530c-1.3,0-2.4-0.2-3.5-0.7c-1-0.5-1.9-1.2-2.5-2.2c-0.6-1-0.9-2.2-0.9-3.6
	c0-1.4,0.3-2.6,1-3.6c0.6-1,1.5-1.7,2.5-2.2c1.1-0.5,2.2-0.8,3.4-0.8c0.7,0,1.4,0.1,2.1,0.2c0.6,0.1,1.2,0.4,1.8,0.7
	c0.6,0.3,1.1,0.7,1.5,1.2l0.1,0.1c0.5,0.5,0.8,1.1,1,1.8c0.3,0.7,0.4,1.5,0.4,2.4c0,1.4-0.3,2.6-1,3.6c-0.6,1-1.5,1.7-2.5,2.2
	C427.9,529.7,426.8,530,425.5,530z M425.5,528.8c0.8,0,1.5-0.2,2.1-0.6c0.6-0.5,1.1-1.1,1.4-1.9c0.3-0.8,0.5-1.8,0.5-2.9
	c0-1.1-0.2-2-0.5-2.8c-0.3-0.8-0.7-1.4-1.3-1.8c-0.6-0.4-1.3-0.6-2.1-0.6c-0.8,0-1.5,0.2-2.1,0.7c-0.6,0.4-1,1-1.4,1.8
	c-0.3,0.8-0.5,1.7-0.5,2.8c0,1.1,0.2,2,0.5,2.8c0.3,0.8,0.8,1.4,1.3,1.8C424,528.6,424.7,528.8,425.5,528.8z M429.9,519.8l0-0.9h0.2
	l4.8-2l0.5,0.4v2.5H429.9z M444,536.5c-1.1,0-2.1-0.1-3-0.4c-0.9-0.2-1.7-0.6-2.7-1.1l0-4.7h1.4l1.3,5.1h-1.5V534
	c0.7,0.4,1.3,0.7,2,1c0.7,0.2,1.5,0.3,2.4,0.3c1,0,1.8-0.1,2.4-0.4c0.6-0.3,1.1-0.7,1.4-1.2c0.3-0.5,0.5-1.1,0.5-1.7
	c0-1-0.3-1.7-1-2.2c-0.7-0.5-1.6-1-2.7-1.4l-1.5-0.6c-0.9-0.3-1.6-0.7-2.4-1.2c-0.7-0.5-1.3-1-1.7-1.7c-0.4-0.7-0.6-1.5-0.6-2.4
	c0-1,0.2-1.9,0.7-2.7c0.5-0.8,1.2-1.5,2.2-2c1-0.5,2.1-0.8,3.5-0.8c1,0,2,0.1,2.8,0.4c0.9,0.2,1.7,0.6,2.5,1.1l-0.2,4.3h-1.4
	l-1.2-4.4h1.6v1.4c-0.7-0.5-1.3-0.9-2-1.1c-0.7-0.2-1.4-0.4-2.2-0.4c-1.3,0-2.2,0.3-2.8,0.8c-0.6,0.6-0.9,1.3-0.9,2.1
	c0,1,0.3,1.7,0.9,2.2c0.6,0.5,1.5,1,2.7,1.4l1.2,0.5c1.1,0.4,2,0.9,2.8,1.4c0.8,0.5,1.4,1.1,1.8,1.8c0.4,0.7,0.6,1.5,0.6,2.4
	c0,1-0.3,1.9-0.8,2.8c-0.5,0.8-1.3,1.5-2.4,2C446.9,536.2,445.6,536.5,444,536.5z M463.2,536v-1.2l4.7-0.5h0.8v1.7H463.2z
	 M466.6,536c0.1-1.2,0.1-2.5,0.1-3.9c0-1.4,0-2.9,0-4.3s0-2.9,0-4.3v-1.9c0-1.4,0-2.8,0-4.2c0-1.5,0-2.9,0-4.3
	c0-1.4-0.1-2.7-0.1-3.9h3.6c0,1.2-0.1,2.5-0.1,3.9c0,1.4,0,2.8,0,4.2s0,2.9,0,4.2v2.3c0,1.3,0,2.6,0,4s0,2.8,0,4.2
	c0,1.4,0.1,2.7,0.1,3.9H466.6z M468.4,536v-1.5h12l-1.5,0.8l1.9-6.8h1.5L482,536H468.4z M463.2,510.3v-1.1h10.4v1.1l-4.7,0.6h-1
	L463.2,510.3z M485.2,536v-1l4.1-0.6h0.8l3.9,0.6v1H485.2z M488.1,536c0-0.6,0-1.4,0-2.4c0-1,0-2.1,0-3.1c0-1.1,0-2.1,0-2.9v-1.9
	c0-1.1,0-2,0-2.8c0-0.8,0-1.6-0.1-2.4L485,520v-1l5.9-2.1l0.5,0.4l-0.2,5.2v5c0,0.8,0,1.8,0,2.9c0,1.1,0.1,2.1,0.1,3.1
	c0,1,0.1,1.8,0.1,2.4H488.1z M489.6,512.8c-0.7,0-1.2-0.2-1.7-0.6c-0.5-0.4-0.7-1-0.7-1.7c0-0.7,0.2-1.3,0.7-1.7
	c0.5-0.4,1.1-0.6,1.7-0.6c0.7,0,1.3,0.2,1.7,0.6s0.7,1,0.7,1.7c0,0.7-0.2,1.3-0.7,1.7S490.3,512.8,489.6,512.8z M496.8,536v-1
	l4.1-0.6h0.8l3.9,0.6v1H496.8z M499.6,536c0.1-0.6,0.1-1.4,0.1-2.4c0-1,0-2.1,0-3.1c0-1.1,0-2.1,0-2.9v-1.9c0-0.7,0-1.4,0-2
	c0-0.6,0-1.1,0-1.6c0-0.5,0-1,0-1.6l-3.1-0.5v-1l5.5-2.1l0.5,0.4l0.2,4.2v0.2v5.9c0,0.8,0,1.8,0,2.9c0,1.1,0,2.1,0,3.1
	c0,1,0.1,1.8,0.1,2.4H499.6z M508.4,536v-1l4.1-0.6h0.8l3.9,0.6v1H508.4z M511.3,536c0-0.6,0.1-1.4,0.1-2.4c0-1,0-2.1,0-3.1
	c0-1.1,0-2.1,0-2.9V524c0-1.8-0.3-3-0.8-3.6c-0.5-0.7-1.3-1-2.5-1c-0.6,0-1.3,0.1-1.9,0.3c-0.6,0.2-1.2,0.5-1.8,1
	c-0.6,0.4-1.3,0.9-2,1.6l-0.5-1h0.3c0.6-0.7,1.3-1.4,2-2.1c0.8-0.7,1.6-1.2,2.5-1.6c0.9-0.4,1.8-0.6,2.8-0.6c1.6,0,2.8,0.5,3.6,1.6
	c0.8,1,1.2,2.8,1.2,5.3v3.7c0,0.9,0,1.8,0,2.9c0,1.1,0.1,2.1,0.1,3.1c0,1,0.1,1.8,0.1,2.4H511.3z M520.1,536v-1l4.1-0.6h0.8l3.9,0.6
	v1H520.1z M522.9,536c0-0.6,0.1-1.4,0.1-2.4c0-1,0-2.1,0-3.1c0-1.1,0-2.1,0-2.9V524c0-1.8-0.3-3-0.8-3.6c-0.5-0.6-1.3-1-2.5-1
	c-0.6,0-1.2,0.1-1.8,0.3c-0.6,0.2-1.2,0.5-1.8,0.9c-0.6,0.4-1.3,1-2,1.6l-0.6-1h0.2c0.6-0.8,1.3-1.6,2.1-2.2
	c0.8-0.7,1.7-1.2,2.6-1.6c0.9-0.4,1.8-0.6,2.8-0.6c1.6,0,2.8,0.5,3.6,1.5c0.8,1,1.2,2.7,1.2,5.2v3.9c0,0.9,0,1.8,0,2.9
	c0,1.1,0.1,2.1,0.1,3.1c0,1,0.1,1.8,0.1,2.4H522.9z M531.4,536v-1l4.1-0.6h0.8l3.9,0.6v1H531.4z M534.3,536c0-0.6,0-1.4,0-2.4
	c0-1,0-2.1,0-3.1c0-1.1,0-2.1,0-2.9v-1.9c0-1.1,0-2,0-2.8c0-0.8,0-1.6-0.1-2.4l-3.1-0.5v-1l5.9-2.1l0.5,0.4l-0.2,5.2v5
	c0,0.8,0,1.8,0,2.9c0,1.1,0.1,2.1,0.1,3.1c0,1,0.1,1.8,0.1,2.4H534.3z M535.8,512.8c-0.7,0-1.2-0.2-1.7-0.6c-0.5-0.4-0.7-1-0.7-1.7
	c0-0.7,0.2-1.3,0.7-1.7c0.5-0.4,1.1-0.6,1.7-0.6c0.7,0,1.3,0.2,1.7,0.6s0.7,1,0.7,1.7c0,0.7-0.2,1.3-0.7,1.7
	S536.5,512.8,535.8,512.8z M546.6,519v-1.6h6.7v1.6H546.6z M549.3,536.5c-1.3,0-2.4-0.3-3.2-1c-0.8-0.7-1.2-1.8-1.2-3.2
	c0-0.6,0-1.2,0-1.8s0-1.3,0-2.1l0-9.3h-3.2v-1.2l4.7-0.7l-1.5,1.1l1.6-6.6h1.6l-0.2,6.4v0.5v13.2c0,1,0.2,1.8,0.6,2.2
	c0.4,0.5,0.9,0.7,1.6,0.7c0.5,0,0.9-0.1,1.4-0.3c0.5-0.2,0.9-0.5,1.3-0.9l0.7,0.7c-0.3,0.5-0.7,0.9-1.1,1.2
	c-0.4,0.3-0.9,0.6-1.4,0.8C550.6,536.4,550,536.5,549.3,536.5z M564.4,536.5c-1.7,0-3.2-0.4-4.5-1.1c-1.3-0.7-2.3-1.8-3.1-3.2
	s-1.1-3.1-1.1-5.1c0-2,0.4-3.8,1.2-5.3c0.8-1.5,1.9-2.7,3.2-3.5c1.3-0.9,2.7-1.3,4.3-1.3c1.3,0,2.5,0.3,3.6,0.9
	c1.1,0.6,1.9,1.4,2.5,2.4c0.6,1.1,1,2.4,1,3.9c0,0.4,0,0.8-0.1,1.2c0,0.3-0.1,0.7-0.2,0.9H557V525h9.1c0.9,0,1.5-0.2,1.8-0.5
	c0.3-0.4,0.5-0.9,0.5-1.5c0-1-0.2-1.8-0.5-2.5c-0.3-0.7-0.8-1.2-1.4-1.6c-0.6-0.4-1.3-0.6-2.2-0.6c-0.9,0-1.7,0.3-2.6,0.8
	c-0.8,0.5-1.5,1.4-2,2.6c-0.5,1.2-0.8,2.7-0.8,4.7c0,1.7,0.3,3.1,0.8,4.2c0.5,1.1,1.3,2,2.2,2.6c1,0.6,2.1,0.9,3.4,0.9
	c1.2,0,2.3-0.2,3.2-0.7c0.9-0.5,1.8-1.2,2.5-2l0.7,0.5c-0.5,1-1.1,1.8-1.8,2.4s-1.5,1.2-2.4,1.5
	C566.6,536.3,565.6,536.5,564.4,536.5z M582.8,536.5c-1.5,0-2.8-0.4-4-1.1c-1.1-0.7-2.1-1.8-2.7-3.2s-1-3.1-1-5.1
	c0-2.1,0.4-3.9,1.1-5.4c0.7-1.5,1.7-2.6,2.9-3.4c1.2-0.8,2.6-1.2,4.1-1.2c0.7,0,1.4,0.1,2,0.3c0.7,0.2,1.3,0.6,1.9,1.1
	c0.6,0.5,1.2,1.2,1.7,2h0.6l-0.4,1.5c-1.1-1.1-2-1.9-2.8-2.4c-0.8-0.5-1.7-0.7-2.6-0.7c-1,0-1.9,0.3-2.7,0.9c-0.8,0.6-1.5,1.4-2,2.6
	c-0.5,1.2-0.7,2.7-0.7,4.5c0,1.8,0.2,3.2,0.7,4.4c0.5,1.1,1.1,2,2,2.6c0.8,0.5,1.8,0.8,2.8,0.8c1.1,0,2-0.3,2.8-0.9
	c0.8-0.6,1.7-1.5,2.5-2.6l0.3,1.5h-0.5c-0.4,0.8-0.9,1.5-1.6,2c-0.6,0.6-1.3,1-2,1.3C584.6,536.3,583.7,536.5,582.8,536.5z
	 M588.6,536.4l-0.2-3.9v-0.1v-11.6l0-0.4v-10.8l-3.2-0.6v-1l5.9-1.6l0.4,0.3l-0.2,6.8v21.1l3,0.4v1L588.6,536.4z"/>
<g>
	<path fill="currentColor" d="M430,483c63.8,17.7,159,8,247-36c-72,49.5-174,53.3-247,39c-52.7-10.3-112-32-214,10.5C285,465.5,340,458,430,483z"/>
	<path fill="currentColor" d="M216.2,497l-0.4-0.9c63.7-28.6,119.1-40,214.3-13.5c68.2,19,165,4.8,246.6-36l0.5,0.9c-49.5,34.1-112.7,46.3-170.6,46.3
		c-27.4,0-53.7-2.8-76.7-7.3c-6.3-1.2-12.6-2.6-19.2-4C361.6,471.7,305.9,459.6,216.2,497z M331,470.7c30.3,0,55.9,5.6,79.9,10.8
		c6.6,1.4,12.9,2.8,19.2,4c69.4,13.6,167.9,11.3,240.2-34.7c-40,19.1-83.3,32.1-125.8,37.8c-42.4,5.7-82.1,3.9-114.6-5.2
		c-81-22.5-133.1-17.6-186,2C277.4,474.5,305.8,470.7,331,470.7z"/>
</g>
</svg>
